<svg width="299" height="104" viewBox="0 0 299 104" fill="none" xmlns="http://www.w3.org/2000/svg">
<path d="M30.96 79.52C27.12 79.52 23.4933 78.7467 20.08 77.2C16.72 75.6533 13.7333 73.52 11.12 70.8C8.50667 68.08 6.45333 64.9333 4.96 61.36C3.52 57.7867 2.8 53.9733 2.8 49.92C2.8 46.0267 3.54667 42.4 5.04 39.04C6.53333 35.6267 8.58667 32.64 11.2 30.08C13.8667 27.4667 16.9333 25.44 20.4 24C23.8667 22.5067 27.5733 21.76 31.52 21.76C33.2267 21.76 35.0667 21.92 37.04 22.24C39.0133 22.56 40.9333 23.0667 42.8 23.76C44.72 24.4 46.3733 25.2 47.76 26.16C48.88 26.9067 49.8933 27.7067 50.8 28.56C51.76 29.4133 52.24 30.48 52.24 31.76C52.24 32.4 52.08 33.0933 51.76 33.84C51.44 34.5867 50.9867 35.3867 50.4 36.24C49.3867 37.7333 48.3733 38.8267 47.36 39.52C46.3467 40.16 45.3867 40.48 44.48 40.48C43.8933 40.48 43.28 40.3467 42.64 40.08C42.0533 39.76 41.2267 39.28 40.16 38.64C39.84 38.4267 39.2267 38.16 38.32 37.84C37.4133 37.4667 36.32 37.1467 35.04 36.88C33.8133 36.56 32.5067 36.4 31.12 36.4C28.6133 36.4 26.32 37.0133 24.24 38.24C22.16 39.4133 20.5067 41.04 19.28 43.12C18.0533 45.2 17.44 47.52 17.44 50.08C17.44 52.6933 18.08 55.12 19.36 57.36C20.64 59.5467 22.32 61.3333 24.4 62.72C26.5333 64.0533 28.8267 64.72 31.28 64.72C32.24 64.72 33.1733 64.6933 34.08 64.64C35.04 64.5867 35.9733 64.48 36.88 64.32C37.7867 64.16 38.5867 63.9467 39.28 63.68V56.8H33.36C32.4 56.8 31.4933 56.72 30.64 56.56C29.7867 56.3467 29.0933 55.8133 28.56 54.96C28.0267 54.1067 27.76 52.64 27.76 50.56C27.76 48.48 28.0533 47.0133 28.64 46.16C29.2267 45.3067 29.9733 44.8 30.88 44.64C31.7867 44.48 32.6933 44.4 33.6 44.4H47.6C49.7333 44.4533 51.2267 44.8533 52.08 45.6C52.9333 46.2933 53.44 47.1467 53.6 48.16C53.8133 49.1733 53.92 50.24 53.92 51.36V67.76C53.92 69.2533 53.28 70.8 52 72.4C50.72 73.9467 48.9867 75.28 46.8 76.4C45.4667 77.0933 43.9733 77.6533 42.32 78.08C40.6667 78.56 38.88 78.9067 36.96 79.12C35.0933 79.3867 33.0933 79.52 30.96 79.52Z" fill="#6634A7"/>
<path d="M97.2 95.6C95.3333 95.6 93.4133 95.3333 91.44 94.8C89.52 94.32 87.7333 93.6533 86.08 92.8C84.4267 91.9467 83.0933 91.0133 82.08 90C81.0667 89.04 80.56 88.08 80.56 87.12C80.56 86.0533 80.7467 85.0667 81.12 84.16C81.5467 83.2533 82.16 82.3733 82.96 81.52C83.8133 80.6133 84.56 79.8933 85.2 79.36C85.84 78.8267 86.6133 78.56 87.52 78.56C88.32 78.56 89.0133 78.7467 89.6 79.12C90.24 79.4933 90.88 79.8933 91.52 80.32C92.16 80.8 92.9333 81.2267 93.84 81.6C94.8 81.9733 96 82.16 97.44 82.16C98.24 82.16 98.9867 81.9733 99.68 81.6C100.373 81.28 100.96 80.8 101.44 80.16C101.973 79.5733 102.4 78.8533 102.72 78C103.04 77.2 103.2 76.32 103.2 75.36V42.4C103.413 40.8 104.08 39.6533 105.2 38.96C106.32 38.2667 108.027 37.92 110.32 37.92C112.667 37.92 114.32 38.2667 115.28 38.96C116.24 39.6533 116.8 40.56 116.96 41.68C117.173 42.7467 117.28 43.8667 117.28 45.04V75.84C117.28 78.9867 116.667 81.7867 115.44 84.24C114.267 86.6933 112.693 88.7467 110.72 90.4C108.747 92.1067 106.587 93.3867 104.24 94.24C101.893 95.1467 99.5467 95.6 97.2 95.6ZM95.2 77.52C92.8533 77.52 90.5867 76.9867 88.4 75.92C86.2667 74.8533 84.3467 73.3867 82.64 71.52C80.9333 69.6533 79.5733 67.5467 78.56 65.2C77.6 62.8 77.12 60.2933 77.12 57.68C77.12 55.1733 77.6 52.7467 78.56 50.4C79.5733 48.0533 80.9333 45.9733 82.64 44.16C84.4 42.2933 86.3467 40.8267 88.48 39.76C90.6667 38.64 92.9067 38.08 95.2 38.08C97.5467 38.08 99.4667 38.56 100.96 39.52C102.507 40.48 103.707 41.84 104.56 43.6C105.467 45.36 106.107 47.4667 106.48 49.92C106.853 52.32 107.04 54.9867 107.04 57.92C107.04 61.9733 106.693 65.4667 106 68.4C105.36 71.3333 104.187 73.6 102.48 75.2C100.773 76.7467 98.3467 77.52 95.2 77.52ZM97.12 63.44C98.1333 63.44 99.04 63.1733 99.84 62.64C100.693 62.1067 101.36 61.4133 101.84 60.56C102.373 59.7067 102.64 58.8 102.64 57.84C102.64 56.7733 102.373 55.8133 101.84 54.96C101.36 54.1067 100.693 53.44 99.84 52.96C98.9867 52.4267 98.0267 52.16 96.96 52.16C95.9467 52.16 95.0133 52.4267 94.16 52.96C93.3067 53.4933 92.6133 54.1867 92.08 55.04C91.6 55.8933 91.36 56.8267 91.36 57.84C91.36 58.8 91.6267 59.7067 92.16 60.56C92.6933 61.4133 93.3867 62.1067 94.24 62.64C95.1467 63.1733 96.1067 63.44 97.12 63.44ZM154.552 78.56C152.152 78.56 150.365 78.16 149.192 77.36C148.072 76.56 147.539 75.6533 147.592 74.64H148.712C148.445 75.0133 147.912 75.52 147.112 76.16C146.365 76.7467 145.352 77.3067 144.072 77.84C142.792 78.32 141.219 78.56 139.352 78.56C136.952 78.56 134.632 78.0267 132.392 76.96C130.205 75.84 128.232 74.32 126.472 72.4C124.765 70.48 123.405 68.32 122.392 65.92C121.379 63.4667 120.872 60.9067 120.872 58.24C120.872 55.6267 121.379 53.12 122.392 50.72C123.405 48.32 124.792 46.1867 126.552 44.32C128.312 42.4 130.285 40.9067 132.472 39.84C134.659 38.72 136.952 38.16 139.352 38.16C141.165 38.16 142.685 38.4267 143.912 38.96C145.192 39.4933 146.205 40.08 146.952 40.72C147.752 41.36 148.285 41.8933 148.552 42.32H147.672C147.619 40.9867 148.152 39.9467 149.272 39.2C150.445 38.4533 152.232 38.08 154.632 38.08C157.032 38.08 158.712 38.4533 159.672 39.2C160.685 39.8933 161.299 40.8 161.512 41.92C161.725 43.04 161.832 44.1867 161.832 45.36V71.36C161.832 72.5333 161.725 73.68 161.512 74.8C161.299 75.92 160.685 76.8267 159.672 77.52C158.712 78.2133 157.005 78.56 154.552 78.56ZM141.352 64.08C142.365 64.08 143.272 63.8133 144.072 63.28C144.925 62.7467 145.592 62.0533 146.072 61.2C146.605 60.2933 146.872 59.3333 146.872 58.32C146.872 57.2533 146.605 56.2933 146.072 55.44C145.592 54.5867 144.925 53.8933 144.072 53.36C143.219 52.8267 142.259 52.56 141.192 52.56C140.125 52.56 139.139 52.8267 138.232 53.36C137.379 53.8933 136.685 54.6133 136.152 55.52C135.619 56.3733 135.352 57.3333 135.352 58.4C135.352 59.4133 135.619 60.3467 136.152 61.2C136.739 62.0533 137.485 62.7467 138.392 63.28C139.299 63.8133 140.285 64.08 141.352 64.08Z" fill="black"/>
<path d="M175.483 78.72C173.083 78.72 171.376 78.3733 170.363 77.68C169.35 76.9333 168.736 76 168.523 74.88C168.31 73.7067 168.203 72.5333 168.203 71.36V30C168.203 28.8267 168.31 27.68 168.523 26.56C168.736 25.44 169.35 24.5333 170.363 23.84C171.376 23.0933 173.11 22.72 175.563 22.72C178.016 22.72 179.723 23.0933 180.683 23.84C181.696 24.5333 182.31 25.44 182.523 26.56C182.736 27.68 182.843 28.8533 182.843 30.08V66.24H202.363C203.376 66.24 204.336 66.32 205.243 66.48C206.203 66.64 206.976 67.1733 207.563 68.08C208.203 68.9333 208.523 70.4 208.523 72.48C208.523 74.5067 208.203 75.9733 207.563 76.88C206.923 77.7333 206.123 78.24 205.163 78.4C204.256 78.6133 203.296 78.72 202.283 78.72H175.483ZM244.63 78.56C242.23 78.56 240.443 78.16 239.27 77.36C238.15 76.56 237.617 75.6533 237.67 74.64H238.79C238.523 75.0133 237.99 75.52 237.19 76.16C236.443 76.7467 235.43 77.3067 234.15 77.84C232.87 78.32 231.297 78.56 229.43 78.56C227.03 78.56 224.71 78.0267 222.47 76.96C220.283 75.84 218.31 74.32 216.55 72.4C214.843 70.48 213.483 68.32 212.47 65.92C211.457 63.4667 210.95 60.9067 210.95 58.24C210.95 55.6267 211.457 53.12 212.47 50.72C213.483 48.32 214.87 46.1867 216.63 44.32C218.39 42.4 220.363 40.9067 222.55 39.84C224.737 38.72 227.03 38.16 229.43 38.16C231.243 38.16 232.763 38.4267 233.99 38.96C235.27 39.4933 236.283 40.08 237.03 40.72C237.83 41.36 238.363 41.8933 238.63 42.32H237.75C237.697 40.9867 238.23 39.9467 239.35 39.2C240.523 38.4533 242.31 38.08 244.71 38.08C247.11 38.08 248.79 38.4533 249.75 39.2C250.763 39.8933 251.377 40.8 251.59 41.92C251.803 43.04 251.91 44.1867 251.91 45.36V71.36C251.91 72.5333 251.803 73.68 251.59 74.8C251.377 75.92 250.763 76.8267 249.75 77.52C248.79 78.2133 247.083 78.56 244.63 78.56ZM231.43 64.08C232.443 64.08 233.35 63.8133 234.15 63.28C235.003 62.7467 235.67 62.0533 236.15 61.2C236.683 60.2933 236.95 59.3333 236.95 58.32C236.95 57.2533 236.683 56.2933 236.15 55.44C235.67 54.5867 235.003 53.8933 234.15 53.36C233.297 52.8267 232.337 52.56 231.27 52.56C230.203 52.56 229.217 52.8267 228.31 53.36C227.457 53.8933 226.763 54.6133 226.23 55.52C225.697 56.3733 225.43 57.3333 225.43 58.4C225.43 59.4133 225.697 60.3467 226.23 61.2C226.817 62.0533 227.563 62.7467 228.47 63.28C229.377 63.8133 230.363 64.08 231.43 64.08ZM278.921 78.56C276.308 78.56 274.041 78 272.121 76.88C270.201 75.7067 268.628 74.16 267.401 72.24C266.175 70.2667 265.268 68.08 264.681 65.68C264.095 63.2267 263.828 60.6933 263.881 58.08C263.935 55.52 264.255 53.04 264.841 50.64C265.481 48.24 266.415 46.1067 267.641 44.24C268.868 42.3733 270.415 40.9067 272.281 39.84C274.148 38.72 276.361 38.16 278.921 38.16C281.268 38.16 283.535 38.72 285.721 39.84C287.961 40.96 289.961 42.48 291.721 44.4C293.481 46.2667 294.868 48.4 295.881 50.8C296.895 53.2 297.401 55.68 297.401 58.24C297.401 60.9067 296.895 63.4667 295.881 65.92C294.868 68.3733 293.481 70.56 291.721 72.48C290.015 74.3467 288.041 75.84 285.801 76.96C283.615 78.0267 281.321 78.56 278.921 78.56ZM277.001 64.16C278.068 64.16 279.028 63.8933 279.881 63.36C280.788 62.8267 281.508 62.1333 282.041 61.28C282.575 60.3733 282.841 59.4133 282.841 58.4C282.841 57.3333 282.575 56.3733 282.041 55.52C281.561 54.6133 280.868 53.92 279.961 53.44C279.108 52.9067 278.148 52.64 277.081 52.64C276.015 52.64 275.028 52.9067 274.121 53.44C273.268 53.9733 272.575 54.6667 272.041 55.52C271.561 56.3733 271.321 57.3333 271.321 58.4C271.321 59.4133 271.588 60.3733 272.121 61.28C272.655 62.1333 273.348 62.8267 274.201 63.36C275.055 63.8933 275.988 64.16 277.001 64.16ZM263.881 78.64C261.481 78.64 259.775 78.2933 258.761 77.6C257.748 76.8533 257.135 75.92 256.921 74.8C256.761 73.68 256.681 72.5333 256.681 71.36V26.96C256.681 25.7333 256.788 24.5867 257.001 23.52C257.215 22.4 257.828 21.4933 258.841 20.8C259.855 20.1067 261.561 19.76 263.961 19.76C266.361 19.76 268.041 20.1333 269.001 20.88C269.961 21.5733 270.521 22.48 270.681 23.6C270.841 24.72 270.895 25.8667 270.841 27.04V74.64C270.468 76.0267 269.748 77.04 268.681 77.68C267.668 78.32 266.068 78.64 263.881 78.64Z" fill="url(#paint0_linear_224_11033)"/>
<circle cx="181.5" cy="53.5" r="1.5" fill="#FFB703"/>
<circle cx="185.5" cy="47.5" r="2.5" fill="#FFB703"/>
<circle cx="185.5" cy="47.5" r="2.5" fill="#FFB703"/>
<circle cx="185.5" cy="47.5" r="2.5" fill="#FFB703"/>
<circle cx="225.5" cy="39.5" r="2.5" fill="#FFB703"/>
<circle cx="225.5" cy="39.5" r="2.5" fill="#FFB703"/>
<circle cx="211.5" cy="37.5" r="2.5" fill="#FFB703"/>
<circle cx="125.5" cy="18.5" r="3.5" fill="#FFB703"/>
<circle cx="122.5" cy="44.5" r="2.5" fill="#FFB703"/>
<circle cx="111.19" cy="30.1184" r="1.02751" transform="rotate(-6.00954 111.19 30.1184)" fill="#FFB703"/>
<circle cx="137" cy="31" r="2" fill="#FFB703"/>
<circle cx="159" cy="33" r="3" fill="#FFB703"/>
<circle cx="159" cy="33" r="3" fill="#FFB703"/>
<circle cx="119" cy="27" r="2" fill="#FFB703"/>
<circle cx="235.5" cy="31.5" r="2.5" fill="#FFB703"/>
<circle cx="213.5" cy="47.5" r="2.5" fill="#FFB703"/>
<circle cx="206.5" cy="64.5" r="2.5" fill="#FFB703"/>
<circle cx="197.5" cy="43.5" r="2.5" fill="#FFB703"/>
<circle cx="182" cy="38" r="1" fill="#FFB703"/>
<circle cx="183" cy="32" r="1" fill="#FFB703"/>
<circle cx="187.5" cy="28.5" r="1.5" fill="#FFB703"/>
<circle cx="188" cy="38" r="2" fill="#FFB703"/>
<circle cx="172.5" cy="35.5" r="1.5" fill="#FFB703"/>
<circle cx="179" cy="17" r="1" fill="#FFB703"/>
<circle cx="184" cy="22" r="2" fill="#FFB703"/>
<circle cx="174.5" cy="22.5" r="1.5" fill="#FFB703"/>
<circle cx="177" cy="31" r="1" fill="#FFB703"/>
<circle cx="179" cy="48" r="2" fill="#FFB703"/>
<rect x="60.5" y="34.5" width="13" height="41" rx="6.5" stroke="#0077B6" stroke-width="3"/>
<rect x="61.6666" y="56.6057" width="10.6667" height="17.7791" rx="5.33333" fill="#FFB703"/>
<ellipse cx="67" cy="51.4854" rx="1" ry="1.01674" fill="#FFB703"/>
<ellipse cx="63" cy="49.4519" rx="1" ry="1.01674" fill="#FFB703"/>
<ellipse cx="69.5" cy="48.9436" rx="0.5" ry="0.508368" fill="#FFB703"/>
<ellipse cx="66.5" cy="55.0439" rx="0.5" ry="0.508368" fill="#FFB703"/>
<ellipse cx="70.5" cy="46.91" rx="0.5" ry="0.508368" fill="#FFB703"/>
<ellipse cx="67.5" cy="45.8933" rx="0.5" ry="0.508368" fill="#FFB703"/>
<ellipse cx="70" cy="43.3515" rx="1" ry="1.01674" fill="#FFB703"/>
<path d="M65 53.0105C65 53.8527 64.3284 54.5356 63.5 54.5356C62.6716 54.5356 62 53.8527 62 53.0105C62 52.1682 62.6716 51.4854 63.5 51.4854C64.3284 51.4854 65 52.1682 65 53.0105Z" fill="#FFB703"/>
<path d="M66 28.6088C66 28.8896 65.7761 29.1172 65.5 29.1172C65.2239 29.1172 65 28.8896 65 28.6088C65 28.3281 65.2239 28.1005 65.5 28.1005C65.7761 28.1005 66 28.3281 66 28.6088Z" fill="#FFB703"/>
<path d="M66 34.7092C66 35.5515 65.3284 36.2343 64.5 36.2343C63.6716 36.2343 63 35.5515 63 34.7092C63 33.8669 63.6716 33.1841 64.5 33.1841C65.3284 33.1841 66 33.8669 66 34.7092Z" fill="#FFB703"/>
<path d="M85 42C85 43.1046 84.1046 44 83 44C81.8954 44 81 43.1046 81 42C81 40.8954 81.8954 40 83 40C84.1046 40 85 40.8954 85 42Z" fill="#FFB703"/>
<path d="M81 48.5C81 49.3284 80.3284 50 79.5 50C78.6716 50 78 49.3284 78 48.5C78 47.6716 78.6716 47 79.5 47C80.3284 47 81 47.6716 81 48.5Z" fill="#FFB703"/>
<path d="M79 29.5251C79 30.3674 78.3284 31.0502 77.5 31.0502C76.6716 31.0502 76 30.3674 76 29.5251C76 28.6828 76.6716 28 77.5 28C78.3284 28 79 28.6828 79 29.5251Z" fill="#FFB703"/>
<path d="M84 23C84 24.6569 82.6569 26 81 26C79.3431 26 78 24.6569 78 23C78 21.3431 79.3431 20 81 20C82.6569 20 84 21.3431 84 23Z" fill="#FFB703"/>
<path d="M89 36.5C89 37.8807 87.8807 39 86.5 39C85.1193 39 84 37.8807 84 36.5C84 35.1193 85.1193 34 86.5 34C87.8807 34 89 35.1193 89 36.5Z" fill="#FFB703"/>
<path d="M91 43C91 44.1046 90.1046 45 89 45C87.8954 45 87 44.1046 87 43C87 41.8954 87.8954 41 89 41C90.1046 41 91 41.8954 91 43Z" fill="#FFB703"/>
<path d="M79 38.5C79 39.3284 78.3284 40 77.5 40C76.6716 40 76 39.3284 76 38.5C76 37.6716 76.6716 37 77.5 37C78.3284 37 79 37.6716 79 38.5Z" fill="#FFB703"/>
<path d="M95 28C95 29.1046 94.1046 30 93 30C91.8954 30 91 29.1046 91 28C91 26.8954 91.8954 26 93 26C94.1046 26 95 26.8954 95 28Z" fill="#FFB703"/>
<path d="M100 38.5C100 39.3284 99.3284 40 98.5 40C97.6716 40 97 39.3284 97 38.5C97 37.6716 97.6716 37 98.5 37C99.3284 37 100 37.6716 100 38.5Z" fill="#FFB703"/>
<path d="M95 37C95 37.5523 94.5523 38 94 38C93.4477 38 93 37.5523 93 37C93 36.4477 93.4477 36 94 36C94.5523 36 95 36.4477 95 37Z" fill="#FFB703"/>
<path d="M64 28.1005C64 28.662 63.5523 29.1172 63 29.1172C62.4477 29.1172 62 28.662 62 28.1005C62 27.5389 62.4477 27.0837 63 27.0837C63.5523 27.0837 64 27.5389 64 28.1005Z" fill="#FFB703"/>
<path d="M60 26.0167C60 26.5783 59.5523 27.0335 59 27.0335C58.4477 27.0335 58 26.5783 58 26.0167C58 25.4552 58.4477 25 59 25C59.5523 25 60 25.4552 60 26.0167Z" fill="#FFB703"/>
<path d="M57 23.5C57 24.3284 56.3284 25 55.5 25C54.6716 25 54 24.3284 54 23.5C54 22.6716 54.6716 22 55.5 22C56.3284 22 57 22.6716 57 23.5Z" fill="#FFB703"/>
<path d="M56 17.9829C56 18.5445 55.5523 18.9997 55 18.9997C54.4477 18.9997 54 18.5445 54 17.9829C54 17.4214 54.4477 16.9662 55 16.9662C55.5523 16.9662 56 17.4214 56 17.9829Z" fill="#FFB703"/>
<path d="M55 31.5C55 32.3284 54.3284 33 53.5 33C52.6716 33 52 32.3284 52 31.5C52 30.6716 52.6716 30 53.5 30C54.3284 30 55 30.6716 55 31.5Z" fill="#FFB703"/>
<path d="M45 22.0167C45 22.5783 44.5523 23.0335 44 23.0335C43.4477 23.0335 43 22.5783 43 22.0167C43 21.4552 43.4477 21 44 21C44.5523 21 45 21.4552 45 22.0167Z" fill="#FFB703"/>
<path d="M50 26C50 27.1046 49.1046 28 48 28C46.8954 28 46 27.1046 46 26C46 24.8954 46.8954 24 48 24C49.1046 24 50 24.8954 50 26Z" fill="#FFB703"/>
<path d="M50 19C50 20.1046 49.1046 21 48 21C46.8954 21 46 20.1046 46 19C46 17.8954 46.8954 17 48 17C49.1046 17 50 17.8954 50 19Z" fill="#FFB703"/>
<path d="M70 26.5753C70 26.856 69.7761 27.0836 69.5 27.0836C69.2239 27.0836 69 26.856 69 26.5753C69 26.2945 69.2239 26.0669 69.5 26.0669C69.7761 26.0669 70 26.2945 70 26.5753Z" fill="#FFB703"/>
<path d="M68 23.5251C68 24.3674 67.3284 25.0502 66.5 25.0502C65.6716 25.0502 65 24.3674 65 23.5251C65 22.6828 65.6716 22 66.5 22C67.3284 22 68 22.6828 68 23.5251Z" fill="#FFB703"/>
<path d="M68 31.1506C68 31.7122 67.5523 32.1674 67 32.1674C66.4477 32.1674 66 31.7122 66 31.1506C66 30.5891 66.4477 30.1339 67 30.1339C67.5523 30.1339 68 30.5891 68 31.1506Z" fill="#FFB703"/>
<path d="M69 37.251C69 37.8125 68.5523 38.2677 68 38.2677C67.4477 38.2677 67 37.8125 67 37.251C67 36.6895 67.4477 36.2343 68 36.2343C68.5523 36.2343 69 36.6895 69 37.251Z" fill="#FFB703"/>
<path d="M70 56.0606C70 56.3414 69.7761 56.569 69.5 56.569C69.2239 56.569 69 56.3414 69 56.0606C69 55.7799 69.2239 55.5522 69.5 55.5522C69.7761 55.5522 70 55.7799 70 56.0606Z" fill="#FFB703"/>
<path d="M60 39C60 37.8954 60.8954 37 62 37V37C63.1046 37 64 37.8954 64 39V70C64 71.1046 63.1046 72 62 72V72C60.8954 72 60 71.1046 60 70V39Z" fill="url(#paint1_linear_224_11033)" fill-opacity="0.3"/>
<defs>
<linearGradient id="paint0_linear_224_11033" x1="187.5" y1="0" x2="187.5" y2="104" gradientUnits="userSpaceOnUse">
<stop offset="0.36" stop-color="#6634A7"/>
<stop offset="1" stop-color="#0077B6"/>
</linearGradient>
<linearGradient id="paint1_linear_224_11033" x1="63" y1="37" x2="63" y2="72" gradientUnits="userSpaceOnUse">
<stop offset="1" stop-color="white" stop-opacity="0.6"/>
<stop offset="1" stop-color="white" stop-opacity="0"/>
</linearGradient>
</defs>
</svg>
