<svg width="60" height="60" viewBox="0 0 60 60" fill="none" xmlns="http://www.w3.org/2000/svg">
<rect x="18.3422" y="17.5251" width="13.8421" height="40.9752" rx="6.92105" stroke="#0077B6" stroke-width="3"/>
<rect x="19.649" y="39.6176" width="11.2281" height="17.7691" rx="5.61404" fill="#FFB703"/>
<ellipse cx="25.2632" cy="34.5001" rx="1.05263" ry="1.01616" fill="#FFB703"/>
<ellipse cx="21.0526" cy="32.4678" rx="1.05263" ry="1.01616" fill="#FFB703"/>
<ellipse cx="27.8947" cy="31.96" rx="0.526316" ry="0.508368" fill="#FFB703"/>
<ellipse cx="24.7369" cy="38.057" rx="0.526316" ry="0.508368" fill="#FFB703"/>
<ellipse cx="28.9473" cy="29.9276" rx="0.526316" ry="0.508368" fill="#FFB703"/>
<ellipse cx="25.7895" cy="28.9115" rx="0.526316" ry="0.508368" fill="#FFB703"/>
<ellipse cx="28.421" cy="26.3708" rx="1.05263" ry="1.01616" fill="#FFB703"/>
<path d="M23.1579 36.0243C23.1579 36.8661 22.451 37.5486 21.5789 37.5486C20.7069 37.5486 20 36.8661 20 36.0243C20 35.1825 20.7069 34.5001 21.5789 34.5001C22.451 34.5001 23.1579 35.1825 23.1579 36.0243Z" fill="#FFB703"/>
<path d="M24.2105 11.6367C24.2105 11.9174 23.9748 12.145 23.6842 12.145C23.3935 12.145 23.1578 11.9174 23.1578 11.6367C23.1578 11.3559 23.3935 11.1283 23.6842 11.1283C23.9748 11.1283 24.2105 11.3559 24.2105 11.6367Z" fill="#FFB703"/>
<path d="M24.2105 17.7334C24.2105 18.5752 23.5036 19.2576 22.6316 19.2576C21.7595 19.2576 21.0526 18.5752 21.0526 17.7334C21.0526 16.8915 21.7595 16.2091 22.6316 16.2091C23.5036 16.2091 24.2105 16.8915 24.2105 17.7334Z" fill="#FFB703"/>
<path d="M44.2105 25.0201C44.2105 26.124 43.268 27.0189 42.1053 27.0189C40.9426 27.0189 40 26.124 40 25.0201C40 23.9161 40.9426 23.0212 42.1053 23.0212C43.268 23.0212 44.2105 23.9161 44.2105 25.0201Z" fill="#FFB703"/>
<path d="M40.0001 31.5164C40.0001 32.3444 39.2931 33.0156 38.4211 33.0156C37.5491 33.0156 36.8422 32.3444 36.8422 31.5164C36.8422 30.6885 37.5491 30.0173 38.4211 30.0173C39.2931 30.0173 40.0001 30.6885 40.0001 31.5164Z" fill="#FFB703"/>
<path d="M37.8947 12.5522C37.8947 13.394 37.1878 14.0764 36.3158 14.0764C35.4437 14.0764 34.7368 13.394 34.7368 12.5522C34.7368 11.7104 35.4437 11.028 36.3158 11.028C37.1878 11.028 37.8947 11.7104 37.8947 12.5522Z" fill="#FFB703"/>
<path d="M43.158 6.03078C43.158 7.6867 41.7441 9.02909 40.0001 9.02909C38.256 9.02909 36.8422 7.6867 36.8422 6.03078C36.8422 4.37486 38.256 3.03247 40.0001 3.03247C41.7441 3.03247 43.158 4.37486 43.158 6.03078Z" fill="#FFB703"/>
<path d="M48.421 19.5232C48.421 20.9031 47.2428 22.0218 45.7894 22.0218C44.336 22.0218 43.1578 20.9031 43.1578 19.5232C43.1578 18.1433 44.336 17.0246 45.7894 17.0246C47.2428 17.0246 48.421 18.1433 48.421 19.5232Z" fill="#FFB703"/>
<path d="M50.5263 26.0195C50.5263 27.1235 49.5838 28.0184 48.4211 28.0184C47.2584 28.0184 46.3158 27.1235 46.3158 26.0195C46.3158 24.9156 47.2584 24.0206 48.4211 24.0206C49.5838 24.0206 50.5263 24.9156 50.5263 26.0195Z" fill="#FFB703"/>
<path d="M37.8947 21.522C37.8947 22.35 37.1878 23.0212 36.3158 23.0212C35.4437 23.0212 34.7368 22.35 34.7368 21.522C34.7368 20.6941 35.4437 20.0229 36.3158 20.0229C37.1878 20.0229 37.8947 20.6941 37.8947 21.522Z" fill="#FFB703"/>
<path d="M54.7369 11.028C54.7369 12.1319 53.7943 13.0269 52.6316 13.0269C51.4689 13.0269 50.5264 12.1319 50.5264 11.028C50.5264 9.92404 51.4689 9.02911 52.6316 9.02911C53.7943 9.02911 54.7369 9.92404 54.7369 11.028Z" fill="#FFB703"/>
<path d="M60.0001 21.522C60.0001 22.35 59.2931 23.0212 58.4211 23.0212C57.5491 23.0212 56.8422 22.35 56.8422 21.522C56.8422 20.6941 57.5491 20.0229 58.4211 20.0229C59.2931 20.0229 60.0001 20.6941 60.0001 21.522Z" fill="#FFB703"/>
<path d="M54.7369 20.0229C54.7369 20.5748 54.2656 21.0223 53.6842 21.0223C53.1029 21.0223 52.6316 20.5748 52.6316 20.0229C52.6316 19.4709 53.1029 19.0234 53.6842 19.0234C54.2656 19.0234 54.7369 19.4709 54.7369 20.0229Z" fill="#FFB703"/>
<path d="M22.1053 11.1283C22.1053 11.6896 21.634 12.1445 21.0526 12.1445C20.4713 12.1445 20 11.6896 20 11.1283C20 10.5671 20.4713 10.1122 21.0526 10.1122C21.634 10.1122 22.1053 10.5671 22.1053 11.1283Z" fill="#FFB703"/>
<path d="M17.8947 9.04583C17.8947 9.60704 17.4234 10.062 16.8421 10.062C16.2607 10.062 15.7894 9.60704 15.7894 9.04583C15.7894 8.48462 16.2607 8.02966 16.8421 8.02966C17.4234 8.02966 17.8947 8.48462 17.8947 9.04583Z" fill="#FFB703"/>
<path d="M14.7369 6.53053C14.7369 7.35849 14.03 8.02968 13.1579 8.02968C12.2859 8.02968 11.579 7.35849 11.579 6.53053C11.579 5.70257 12.2859 5.03137 13.1579 5.03137C14.03 5.03137 14.7369 5.70257 14.7369 6.53053Z" fill="#FFB703"/>
<path d="M13.6842 1.01653C13.6842 1.57774 13.213 2.03269 12.6316 2.03269C12.0503 2.03269 11.579 1.57774 11.579 1.01653C11.579 0.455318 12.0503 0.000366211 12.6316 0.000366211C13.213 0.000366211 13.6842 0.455318 13.6842 1.01653Z" fill="#FFB703"/>
<path d="M12.6315 14.526C12.6315 15.354 11.9246 16.0252 11.0526 16.0252C10.1806 16.0252 9.47363 15.354 9.47363 14.526C9.47363 13.6981 10.1806 13.0269 11.0526 13.0269C11.9246 13.0269 12.6315 13.6981 12.6315 14.526Z" fill="#FFB703"/>
<path d="M2.10526 5.04809C2.10526 5.6093 1.63398 6.06425 1.05263 6.06425C0.471279 6.06425 0 5.6093 0 5.04809C0 4.48687 0.471279 4.03192 1.05263 4.03192C1.63398 4.03192 2.10526 4.48687 2.10526 5.04809Z" fill="#FFB703"/>
<path d="M7.36836 9.02909C7.36836 10.133 6.4258 11.028 5.2631 11.028C4.1004 11.028 3.15784 10.133 3.15784 9.02909C3.15784 7.92514 4.1004 7.03021 5.2631 7.03021C6.4258 7.03021 7.36836 7.92514 7.36836 9.02909Z" fill="#FFB703"/>
<path d="M7.36836 2.03305C7.36836 3.137 6.4258 4.03193 5.2631 4.03193C4.1004 4.03193 3.15784 3.137 3.15784 2.03305C3.15784 0.929106 4.1004 0.0341797 5.2631 0.0341797C6.4258 0.0341797 7.36836 0.929106 7.36836 2.03305Z" fill="#FFB703"/>
<path d="M28.421 9.60438C28.421 9.88514 28.1854 10.1127 27.8947 10.1127C27.604 10.1127 27.3684 9.88514 27.3684 9.60438C27.3684 9.32361 27.604 9.09601 27.8947 9.09601C28.1854 9.09601 28.421 9.32361 28.421 9.60438Z" fill="#FFB703"/>
<path d="M26.3157 6.55562C26.3157 7.39744 25.6088 8.07986 24.7368 8.07986C23.8648 8.07986 23.1578 7.39744 23.1578 6.55562C23.1578 5.7138 23.8648 5.03137 24.7368 5.03137C25.6088 5.03137 26.3157 5.7138 26.3157 6.55562Z" fill="#FFB703"/>
<path d="M26.3158 14.1768C26.3158 14.738 25.8446 15.193 25.2632 15.193C24.6819 15.193 24.2106 14.738 24.2106 14.1768C24.2106 13.6156 24.6819 13.1606 25.2632 13.1606C25.8446 13.1606 26.3158 13.6156 26.3158 14.1768Z" fill="#FFB703"/>
<path d="M27.3684 20.2738C27.3684 20.835 26.8972 21.29 26.3158 21.29C25.7345 21.29 25.2632 20.835 25.2632 20.2738C25.2632 19.7126 25.7345 19.2576 26.3158 19.2576C26.8972 19.2576 27.3684 19.7126 27.3684 20.2738Z" fill="#FFB703"/>
<path d="M28.421 39.0731C28.421 39.3539 28.1854 39.5815 27.8947 39.5815C27.604 39.5815 27.3684 39.3539 27.3684 39.0731C27.3684 38.7924 27.604 38.5648 27.8947 38.5648C28.1854 38.5648 28.421 38.7924 28.421 39.0731Z" fill="#FFB703"/>
<path d="M17.8948 22.1281C17.8948 20.9654 18.8373 20.0229 20 20.0229V20.0229C21.1627 20.0229 22.1053 20.9654 22.1053 22.1282V52.8979C22.1053 54.0606 21.1627 55.0032 20 55.0032V55.0032C18.8373 55.0032 17.8948 54.0606 17.8948 52.8979V22.1281Z" fill="url(#paint0_linear_224_11035)" fill-opacity="0.3"/>
<defs>
<linearGradient id="paint0_linear_224_11035" x1="21.0527" y1="20.0229" x2="21.0527" y2="55.0032" gradientUnits="userSpaceOnUse">
<stop offset="1" stop-color="white" stop-opacity="0.6"/>
<stop offset="1" stop-color="white" stop-opacity="0"/>
</linearGradient>
</defs>
</svg>
